# WaveFront *.obj file (generated by Autodesk ATF)

mtllib test_cube_video_material.mtl

g Body2

v 1.000000 0.000000 -1.000000
v 0.000000 0.000000 -1.000000
v 0.000000 1.000000 -1.000000
v 1.000000 1.000000 -1.000000
v 1.000000 0.000000 0.000000
v 1.000000 1.000000 0.000000
v 0.000000 0.000000 0.000000
v 0.000000 1.000000 0.000000
vt 0.000000 0.000000 0.000000
vt 0.100000 0.000000 0.000000
vt 0.000000 0.100000 0.000000
vt 0.100000 0.100000 0.000000
vt 0.000000 0.000000 0.000000
vt 0.100000 0.000000 0.000000
vt 0.000000 0.100000 0.000000
vt 0.100000 0.100000 0.000000
vt 0.000000 0.000000 0.000000
vt 0.100000 0.000000 0.000000
vt 0.000000 0.100000 0.000000
vt 0.100000 0.100000 0.000000
vt 0.000000 0.000000 0.000000
vt 0.100000 0.000000 0.000000
vt 0.000000 0.100000 0.000000
vt 0.100000 0.100000 0.000000
vt -0.050000 -0.050000 0.000000
vt 0.050000 -0.050000 0.000000
vt -0.050000 0.050000 0.000000
vt 0.050000 0.050000 0.000000
vt 0.050000 0.050000 0.000000
vt -0.050000 0.050000 0.000000
vt 0.050000 -0.050000 0.000000
vt -0.050000 -0.050000 0.000000
vn 0.000000 0.000000 -0.100000
vn 0.000000 0.000000 -0.100000
vn 0.000000 0.000000 -0.100000
vn 0.000000 0.000000 -0.100000
vn 0.100000 -0.000000 0.000000
vn 0.100000 -0.000000 0.000000
vn 0.100000 -0.000000 0.000000
vn 0.100000 -0.000000 0.000000
vn 0.000000 0.000000 0.100000
vn 0.000000 0.000000 0.100000
vn 0.000000 0.000000 0.100000
vn 0.000000 0.000000 0.100000
vn -0.100000 0.000000 0.000000
vn -0.100000 0.000000 0.000000
vn -0.100000 0.000000 0.000000
vn -0.100000 0.000000 0.000000
vn 0.000000 0.100000 0.000000
vn 0.000000 0.100000 0.000000
vn 0.000000 0.100000 0.000000
vn 0.000000 0.100000 0.000000
vn 0.000000 -0.100000 0.000000
vn 0.000000 -0.100000 0.000000
vn 0.000000 -0.100000 0.000000
vn 0.000000 -0.100000 0.000000
usemtl Paint_-_Metallic_(Blue)
f 1/1/1 2/2/2 4/3/3
f 4/3/3 2/2/2 3/4/4
usemtl Paint_-_Metallic_(Yellow)
f 5/5/5 1/6/6 6/7/7
f 6/7/7 1/6/6 4/8/8
usemtl Paint_-_Metallic_(Green)
f 7/9/9 5/10/10 8/11/11
f 8/11/11 5/10/10 6/12/12
usemtl Paint_-_Metallic_(Black)
f 2/13/13 7/14/14 3/15/15
f 3/15/15 7/14/14 8/16/16
usemtl Paint_-_Metallic_(Red)
f 3/17/17 8/18/18 4/19/19
f 4/19/19 8/18/18 6/20/20
usemtl Paint_-_Metallic_(Silver)
f 2/21/21 1/22/22 7/23/23
f 7/23/23 1/22/22 5/24/24
# 8 vertices
# 24 texture params
# 24 normals
# 12 facets

# 1 groups
